<svg width="43" height="43" viewBox="0 0 43 43" fill="none" xmlns="http://www.w3.org/2000/svg">
<circle cx="21.5" cy="21.5" r="21.5" fill="white"/>
<path fill-rule="evenodd" clip-rule="evenodd" d="M16 17.2C16 16.0799 16 15.5198 16.218 15.092C16.4097 14.7157 16.7157 14.4097 17.092 14.218C17.5198 14 18.0799 14 19.2 14H20.5012C21.0521 14 21.3276 14 21.5829 14.0687C21.809 14.1295 22.0228 14.2296 22.2143 14.3644C22.4305 14.5166 22.6068 14.7282 22.9595 15.1514L24.5 17H26.8C27.9201 17 28.4802 17 28.908 17.218C29.2843 17.4097 29.5903 17.7157 29.782 18.092C30 18.5198 30 19.0799 30 20.2V22.8C30 23.9201 30 24.4802 29.782 24.908C29.5903 25.2843 29.2843 25.5903 28.908 25.782C28.4802 26 27.9201 26 26.8 26H26H17C16.4477 26 16 25.5523 16 25V18V17.2ZM14 18.0192C13.6078 18.0431 13.3295 18.097 13.092 18.218C12.7157 18.4097 12.4097 18.7157 12.218 19.092C12 19.5198 12 20.0799 12 21.2V23.6C12 25.8402 12 26.9603 12.436 27.816C12.8195 28.5686 13.4314 29.1805 14.184 29.564C15.0397 30 16.1598 30 18.4 30H22.8C23.9201 30 24.4802 30 24.908 29.782C25.2843 29.5903 25.5903 29.2843 25.782 28.908C25.903 28.6705 25.9569 28.3922 25.9808 28H17C15.3431 28 14 26.6569 14 25V18.0192Z" fill="#222222"/>
</svg>
