<svg width="38" height="38" viewBox="0 0 38 38" fill="none" xmlns="http://www.w3.org/2000/svg">
<path fill-rule="evenodd" clip-rule="evenodd" d="M19.7969 28.0127C21.7455 27.0337 30.1908 22.3297 30.1908 14.3296C30.1908 8.36956 25.3592 3.53796 19.3991 3.53796C13.439 3.53796 8.60742 8.36956 8.60742 14.3296C8.60742 22.3297 17.0527 27.0337 19.0013 28.0127C19.2559 28.1405 19.5423 28.1405 19.7969 28.0127ZM19.3991 18.9546C21.9534 18.9546 24.0241 16.8839 24.0241 14.3296C24.0241 11.7753 21.9534 9.70463 19.3991 9.70463C16.8448 9.70463 14.7741 11.7753 14.7741 14.3296C14.7741 16.8839 16.8448 18.9546 19.3991 18.9546Z" fill="white"/>
<path d="M28.7449 25.8921C29.6921 26.5952 30.1908 27.3927 30.1908 28.2046C30.1908 29.0164 29.6921 29.814 28.7449 30.5171C27.7978 31.2202 26.4355 31.804 24.7949 32.21C23.1544 32.6159 21.2934 32.8296 19.3991 32.8296C17.5048 32.8296 15.6438 32.6159 14.0033 32.21C12.3627 31.804 11.0004 31.2202 10.0532 30.5171C9.10606 29.814 8.60742 29.0164 8.60742 28.2046C8.60742 27.3927 9.10606 26.5952 10.0532 25.8921" stroke="white" stroke-width="2" stroke-linecap="round"/>
</svg>
