<svg width="34" height="34" viewBox="0 0 34 34" fill="none" xmlns="http://www.w3.org/2000/svg">
<path d="M26.9167 4.25H7.08333C5.51853 4.25 4.25 5.51853 4.25 7.08333V26.9167C4.25 28.4815 5.51853 29.75 7.08333 29.75H26.9167C28.4815 29.75 29.75 28.4815 29.75 26.9167V7.08333C29.75 5.51853 28.4815 4.25 26.9167 4.25Z" stroke="white" stroke-width="2.7" stroke-linecap="round" stroke-linejoin="round"/>
<path d="M12.7498 15.5832C14.3146 15.5832 15.5832 14.3146 15.5832 12.7498C15.5832 11.185 14.3146 9.9165 12.7498 9.9165C11.185 9.9165 9.9165 11.185 9.9165 12.7498C9.9165 14.3146 11.185 15.5832 12.7498 15.5832Z" stroke="white" stroke-width="2.7" stroke-linecap="round" stroke-linejoin="round"/>
<path d="M29.75 21.2502L25.3782 16.8784C24.8468 16.3472 24.1263 16.0488 23.375 16.0488C22.6237 16.0488 21.9032 16.3472 21.3718 16.8784L8.5 29.7502" stroke="white" stroke-width="2.7" stroke-linecap="round" stroke-linejoin="round"/>
</svg>
